<?xml version="1.0" encoding="UTF-8"?>
<svg version="1.1" xmlns="http://www.w3.org/2000/svg" width="512" height="512">
<path d="M0 0 C8.59186708 7.88092033 14.25837724 17.96546313 15.22119141 29.69458008 C15.76938408 43.65716417 14.99575021 56.60867902 11 70 C10.66983887 71.16450684 10.66983887 71.16450684 10.33300781 72.35253906 C3.23839744 97.04019997 -8.87281321 120.03743366 -22 142 C-22.81235107 143.36294189 -22.81235107 143.36294189 -23.64111328 144.75341797 C-30.50370831 156.20194671 -37.77966436 167.26986126 -45.61083984 178.07714844 C-46.93556993 179.91081701 -48.24603463 181.75363811 -49.55078125 183.6015625 C-64.08621935 204.16845816 -79.59613961 223.98584446 -95.91625977 243.16430664 C-98.80893451 246.56944129 -101.63814467 250.01725775 -104.4375 253.5 C-108.30390167 258.2549105 -112.38528868 262.76661645 -116.57592773 267.234375 C-119.24139551 270.07754063 -121.84977374 272.95651777 -124.40625 275.8984375 C-127.97402101 279.99663213 -131.65271084 283.97967179 -135.375 287.9375 C-136.02984375 288.63552734 -136.6846875 289.33355469 -137.359375 290.05273438 C-141.44677102 294.39458292 -145.58686838 298.6673061 -149.875 302.8125 C-151.69809998 304.68922057 -153.39467059 306.60582412 -155.09765625 308.58984375 C-159.63982913 313.81703391 -164.53239197 318.67830927 -169.4375 323.5625 C-170.34048828 324.46935547 -171.24347656 325.37621094 -172.17382812 326.31054688 C-176.73498726 330.86510042 -181.3548089 335.26735215 -186.24633789 339.46459961 C-188.79363954 341.69486274 -191.13438979 344.07738713 -193.5 346.5 C-197.11407858 350.16300954 -200.80261628 353.6616565 -204.71875 357 C-207.19301284 359.16921673 -209.58944277 361.40899314 -211.98779297 363.66137695 C-217.61814284 368.94896402 -223.33288543 374.00283032 -229.3671875 378.83203125 C-232.10969154 381.09032463 -234.7093759 383.45781334 -237.3125 385.875 C-241.94427934 390.13729267 -246.76314573 394.04250493 -251.73535156 397.8918457 C-255.58197908 400.8724043 -259.3417258 403.9258579 -263.0625 407.0625 C-269.2326266 412.23404032 -275.5662259 417.16384096 -282 422 C-282.68416992 422.51546387 -283.36833984 423.03092773 -284.07324219 423.56201172 C-296.78009327 433.10765995 -309.78411589 442.17429656 -323 451 C-323.65274902 451.43650879 -324.30549805 451.87301758 -324.97802734 452.32275391 C-363.46411293 477.91937867 -415.71469815 510.54727384 -464.14453125 501.34375 C-475.70573785 498.16201817 -485.24921177 490.8084764 -491.46875 480.5859375 C-500.86358847 462.9433048 -498.51552607 440.56259809 -493 422 C-492.79101074 421.27683594 -492.58202148 420.55367188 -492.36669922 419.80859375 C-488.70843757 407.37872496 -483.55958536 395.68269166 -478 384 C-477.67273926 383.30696777 -477.34547852 382.61393555 -477.00830078 381.89990234 C-466.943254 360.7210403 -454.97580282 339.48737372 -440.85546875 320.75 C-440.38061035 320.11763428 -439.90575195 319.48526855 -439.41650391 318.83374023 C-438.16508363 317.19669478 -436.88265107 315.58348177 -435.59765625 313.97265625 C-433.48371594 310.03938346 -433.95907064 308.31178068 -435 304 C-435.176521 303.2366333 -435.35304199 302.4732666 -435.53491211 301.68676758 C-436.14521726 299.07651204 -436.78994875 296.47624813 -437.4375 293.875 C-439.3616446 285.95402957 -441.04896572 278.10590846 -442 270 C-442.11085938 269.12730469 -442.22171875 268.25460937 -442.3359375 267.35546875 C-447.84610001 215.30677149 -432.78139392 163.36021724 -401 122 C-400.38511719 121.18015625 -399.77023437 120.3603125 -399.13671875 119.515625 C-387.2218628 104.24610087 -372.84432387 91.07127069 -357 80 C-356.40799805 79.58459961 -355.81599609 79.16919922 -355.20605469 78.74121094 C-328.47410656 60.23447762 -297.3401465 48.57272781 -265 45 C-264.13246094 44.89042969 -263.26492188 44.78085937 -262.37109375 44.66796875 C-208.97089562 38.97093481 -154.83692355 55.25219393 -113 88.625 C-111.31741107 90.06493347 -109.65128643 91.52427407 -108 93 C-107.49065918 93.45052734 -106.98131836 93.90105469 -106.45654297 94.36523438 C-90.71360272 108.34030074 -77.94376651 124.01246067 -67 142 C-59.44358115 130.64628986 -52.61713107 118.92239236 -46 107 C-45.52240234 106.14486816 -45.04480469 105.28973633 -44.55273438 104.40869141 C-25.27832194 70.24288388 -25.27832194 70.24288388 -21.5625 32.25 C-22.68860654 28.88811782 -22.68860654 28.88811782 -25.375 27.5 C-50.2849771 24.06414109 -75.59574544 37.05135739 -96.85668945 48.72119141 C-97.7199585 49.17800293 -98.58322754 49.63481445 -99.47265625 50.10546875 C-100.22812744 50.51949951 -100.98359863 50.93353027 -101.76196289 51.36010742 C-104.83282832 52.23811967 -106.20238369 51.43763312 -109 50 C-110.33147065 49.2497359 -111.64358057 48.46402884 -112.93359375 47.64453125 C-113.65885254 47.18989502 -114.38411133 46.73525879 -115.13134766 46.2668457 C-115.89237793 45.78691162 -116.6534082 45.30697754 -117.4375 44.8125 C-125.09095976 40.0500512 -132.84552974 35.84125368 -141 32 C-139.75481436 28.26444309 -138.75021758 27.99007759 -135.3828125 26.1015625 C-133.90385498 25.26830444 -133.90385498 25.26830444 -132.39501953 24.41821289 C-131.31591309 23.82645264 -130.23680664 23.23469238 -129.125 22.625 C-128.01108887 22.00939209 -126.89717773 21.39378418 -125.74951172 20.75952148 C-102.56664979 8.09418091 -78.96852401 -3.47983375 -53 -9 C-52.10023438 -9.19207031 -51.20046875 -9.38414063 -50.2734375 -9.58203125 C-32.64144678 -11.83337135 -14.5719378 -11.20342478 0 0 Z M-416 350 C-417.68425251 352.28851945 -417.68425251 352.28851945 -419.4375 355.3125 C-419.78603027 355.89370605 -420.13456055 356.47491211 -420.49365234 357.07373047 C-421.26220046 358.36112398 -422.02663701 359.65097824 -422.78759766 360.94287109 C-424.00928063 363.0157468 -425.24480373 365.07996695 -426.48046875 367.14453125 C-453.61583447 409.49669566 -453.61583447 409.49669566 -461.5625 457.4296875 C-460.53828573 460.60707951 -459.44930501 462.65887563 -456.77734375 464.6875 C-445.35726672 470.08432965 -429.61848892 464.03047014 -418.35205078 460.13256836 C-394.55743175 451.49404752 -362.14683554 438.14683554 -344 420 C-344.72703125 419.52691406 -345.4540625 419.05382812 -346.203125 418.56640625 C-356.59978404 411.72860357 -366.54209406 404.56938204 -375.69921875 396.11328125 C-377.77785234 394.20404395 -379.90420746 392.38023356 -382.0625 390.5625 C-393.70117091 380.36991646 -403.14539234 367.50351178 -411.1328125 354.31738281 C-412.03897766 352.84654251 -413.01344473 351.41817319 -414 350 C-414.66 350 -415.32 350 -416 350 Z " fill="#000000" transform="translate(497,10)"/>
<path d="M0 0 C0.66 0 1.32 0 2 0 C2.66672564 28.28198885 1.0512547 54.92623436 -8 82 C-8.23976563 82.72219727 -8.47953125 83.44439453 -8.7265625 84.18847656 C-12.24469549 94.58339972 -16.84717538 104.32419555 -22 114 C-22.31163086 114.59522461 -22.62326172 115.19044922 -22.94433594 115.80371094 C-36.01703323 140.60725195 -55.7024887 162.24337763 -78 179 C-78.55139648 179.4228125 -79.10279297 179.845625 -79.67089844 180.28125 C-95.5803792 192.45347676 -113.19435991 201.2392781 -132 208 C-133.00329346 208.36665771 -133.00329346 208.36665771 -134.02685547 208.74072266 C-155.40055562 216.41992914 -177.5102332 219.18259144 -200.0625 219.0625 C-201.70768093 219.0574758 -203.35286335 219.05291452 -204.99804688 219.04882812 C-208.99873498 219.03789342 -212.99935088 219.0206793 -217 219 C-217 218.34 -217 217.68 -217 217 C-215.20036945 215.48079133 -213.39515081 214.07944805 -211.5 212.6875 C-204.11554171 207.14039716 -196.96117167 201.33420771 -189.81591797 195.48388672 C-188.23700279 194.19366805 -186.65221373 192.91064412 -185.06640625 191.62890625 C-173.73242236 182.45056863 -162.79968615 172.79802892 -152 163 C-150.37536922 161.54125535 -148.75036109 160.08293087 -147.125 158.625 C-130.73684153 143.86547839 -114.65099032 128.82784151 -99.07836914 113.20874023 C-96.91082358 111.03575665 -94.737875 108.86827637 -92.56445312 106.70117188 C-91.15592873 105.29198771 -89.747714 103.88249394 -88.33984375 102.47265625 C-87.7043309 101.83916763 -87.06881805 101.20567902 -86.41404724 100.55299377 C-82.6126667 96.73192168 -79.00131065 92.79386503 -75.48683167 88.70701599 C-73.74542618 86.70772644 -71.90701018 84.8412512 -70 83 C-66.85079119 79.89286078 -63.92023033 76.67509696 -61.0390625 73.3203125 C-58.96462012 70.95974014 -56.83548347 68.6608639 -54.69067383 66.36450195 C-49.71543734 61.03549846 -44.96230397 55.61286404 -40.39453125 49.92578125 C-37.58319366 46.49072113 -34.6725734 43.15283049 -31.75 39.8125 C-20.67010346 27.10798519 -9.36163408 14.04245112 0 0 Z " fill="#000000" transform="translate(456,239)"/>
</svg>
